HIERARCHY
ROOT Hips
{
	OFFSET 0.000000 0.000000 0.000000
	CHANNELS 6 Xposition Yposition Zposition Xrotation Yrotation Zrotation
	JOINT LeftUpLeg_virtual
	{
		OFFSET 0.000000 0.000000 0.000000
		CHANNELS 3 Xrotation Yrotation Zrotation
		JOINT LeftUpLeg
		{
			OFFSET 10.205400 -3.823500 0.155100
			CHANNELS 3 Xrotation Yrotation Zrotation
			JOINT LeftLeg
			{
				OFFSET 0.708757 -12.982077 0.567790
				CHANNELS 3 Xrotation Yrotation Zrotation
				JOINT LeftFoot
				{
					OFFSET -0.708756 -10.717838 -2.184338
					CHANNELS 3 Xrotation Yrotation Zrotation
					JOINT LeftToeBase
					{
						OFFSET 0.108149 -7.191104 7.560241
						CHANNELS 3 Xrotation Yrotation Zrotation
						JOINT LeftToe_End
						{
							OFFSET 0.070230 0.081724 4.490308
							CHANNELS 3 Xrotation Yrotation Zrotation
							End Site
							{
								OFFSET 0 0 0
							}
						}
					}
				}
			}
		}
	}
	JOINT RightUpLeg_virtual
	{
		OFFSET 0.000000 0.000000 0.000000
		CHANNELS 3 Xrotation Yrotation Zrotation
		JOINT RightUpLeg
		{
			OFFSET -10.205400 -3.823500 0.005500
			CHANNELS 3 Xrotation Yrotation Zrotation
			JOINT RightLeg
			{
				OFFSET -0.708756 -12.982134 0.610632
				CHANNELS 3 Xrotation Yrotation Zrotation
				JOINT RightFoot
				{
					OFFSET 0.708754 -10.717769 -1.945823
					CHANNELS 3 Xrotation Yrotation Zrotation
					JOINT RightToeBase
					{
						OFFSET -0.108140 -7.191069 7.372968
						CHANNELS 3 Xrotation Yrotation Zrotation
						JOINT RightToe_End
						{
							OFFSET -0.070227 0.081735 4.479403
							CHANNELS 3 Xrotation Yrotation Zrotation
							End Site
							{
								OFFSET 0 0 0
							}
						}
					}
				}
			}
		}
	}
	JOINT Spine_virtual
	{
		OFFSET 0.000000 0.000000 0.000000
		CHANNELS 3 Xrotation Yrotation Zrotation
		JOINT Spine
		{
			OFFSET 0.000000 6.876099 0.125700
			CHANNELS 3 Xrotation Yrotation Zrotation
			JOINT Spine1
			{
				OFFSET 0.000000 5.730043 0.104720
				CHANNELS 3 Xrotation Yrotation Zrotation
				JOINT Spine1_split
				{
					OFFSET 0.000000 5.730043 0.104720
					CHANNELS 3 Xrotation Yrotation Zrotation
					JOINT Spine2
					{
						OFFSET 0.000000 5.730043 0.104720
						CHANNELS 3 Xrotation Yrotation Zrotation
						JOINT Neck_virtual
						{
							OFFSET 0.000000 0.000000 0.000000
							CHANNELS 3 Xrotation Yrotation Zrotation
							JOINT Neck
							{
								OFFSET 0.000000 10.314075 0.188496
								CHANNELS 3 Xrotation Yrotation Zrotation
								JOINT Head
								{
									OFFSET 0.000000 7.643700 -2.377400
									CHANNELS 3 Xrotation Yrotation Zrotation
									JOINT HeadTop_End
									{
										OFFSET 0.000000 43.788605 -13.619600
										CHANNELS 3 Xrotation Yrotation Zrotation
										End Site
										{
											OFFSET 0 0 0
										}
									}
								}
							}
						}
						JOINT LeftShoulder_virtual
						{
							OFFSET 0.000000 0.000000 0.000000
							CHANNELS 3 Xrotation Yrotation Zrotation
							JOINT LeftShoulder
							{
								OFFSET 2.196100 4.412489 0.087492
								CHANNELS 3 Xrotation Yrotation Zrotation
								JOINT LeftShoulder_split
								{
									OFFSET 2.196100 4.412489 0.087492
									CHANNELS 3 Xrotation Yrotation Zrotation
									JOINT LeftArm
									{
										OFFSET 8.771219 -2.981674 -0.026999
										CHANNELS 3 Xrotation Yrotation Zrotation
										JOINT LeftForeArm
										{
											OFFSET 8.512804 0.000000 -0.000000
											CHANNELS 3 Xrotation Yrotation Zrotation
											JOINT LeftHand
											{
												OFFSET 18.484802 0.000000 -0.000000
												CHANNELS 3 Xrotation Yrotation Zrotation
												End Site
												{
													OFFSET 0 0 0
												}
											}
										}
									}
								}
							}
						}
						JOINT RightShoulder_virtual
						{
							OFFSET 0.000000 0.000000 0.000000
							CHANNELS 3 Xrotation Yrotation Zrotation
							JOINT RightShoulder
							{
								OFFSET -2.196100 4.412496 0.070690
								CHANNELS 3 Xrotation Yrotation Zrotation
								JOINT RightShoulder_split
								{
									OFFSET -2.196100 4.412496 0.070690
									CHANNELS 3 Xrotation Yrotation Zrotation
									JOINT RightArm
									{
										OFFSET -8.771282 -2.981682 -0.094208
										CHANNELS 3 Xrotation Yrotation Zrotation
										JOINT RightForeArm
										{
											OFFSET -8.494598 0.000000 0.000000
											CHANNELS 3 Xrotation Yrotation Zrotation
											JOINT RightHand
											{
												OFFSET -18.483803 0.000000 0.000001
												CHANNELS 3 Xrotation Yrotation Zrotation
												End Site
												{
													OFFSET 0 0 0
												}
											}
										}
									}
								}
							}
						}
					}
				}
			}
		}
	}
}
MOTION
Frames: 4
Frame Time: 0.03333333
-3.539788 25.756817 6.887463 0.000000 0.000000 0.000000 8.066677 35.335331 -2.741872 -74.998455 -4.625817 -33.569960 82.865508 -46.376831 1.705937 4.817393 10.191545 6.211814 4.089722 -0.301728 2.489439 0.000000 0.000000 0.000000 9.444396 37.864789 -3.764073 17.953724 -34.310106 -2.346296 64.272599 17.539007 -8.908374 -38.419582 -3.576755 2.943088 -42.598169 -7.099157 4.957021 0.000000 0.000000 0.000000 10.646749 43.006754 -5.406769 6.508529 12.262549 -0.001628 3.125066 16.340123 0.062911 1.033028 1.816778 0.605119 0.000000 0.000000 0.000000 2.709885 15.397562 -0.403937 18.724088 -31.629882 3.888828 -22.976814 -36.370129 -1.504661 0.000000 0.000000 0.000000 2.648852 16.331380 -0.837832 2.127304 -4.642609 -6.148379 -3.781175 -8.771817 -2.441981 -33.235601 9.949183 -25.710857 50.461356 -3.127430 17.619250 0.000000 0.000000 0.000000 3.837672 16.355086 -1.045877 0.516806 8.045213 -16.332523 -4.980826 4.407091 2.953095 -18.596025 -20.139062 3.888836 -33.331289 29.513292 9.879431 0.000000 0.000000 0.000000 
-3.316565 25.830278 6.841681 0.000000 0.000000 0.000000 8.598392 33.538319 -2.847983 -75.232580 -4.285338 -31.914110 83.476359 -45.371270 2.307495 4.858353 9.556160 5.775049 4.347398 -0.213543 2.618963 0.000000 0.000000 0.000000 10.252958 36.343781 -3.826124 17.265714 -32.936422 -3.511450 63.593610 17.274291 -8.494037 -38.701969 -3.509593 2.547837 -41.625447 -6.831139 5.081266 0.000000 0.000000 0.000000 11.088728 41.807393 -5.877833 6.549100 11.960576 0.079094 3.325125 15.877878 -0.206319 1.018323 1.473785 0.710163 0.000000 0.000000 0.000000 2.795857 14.932672 -0.672542 17.651458 -31.253580 3.078292 -22.694115 -37.466685 -0.531093 0.000000 0.000000 0.000000 2.862842 15.839519 -1.228163 2.050104 -4.864952 -6.063240 -4.714830 -8.627862 -1.715317 -27.338713 13.541233 -25.018221 50.511844 -3.059929 19.055299 0.000000 0.000000 0.000000 3.924909 15.972696 -1.218840 0.310283 6.985135 -16.647068 -5.492799 3.490561 2.388482 -23.169943 -18.265193 4.844431 -32.525962 30.908191 12.335406 0.000000 0.000000 0.000000 
-3.052946 25.947975 6.797960 0.000000 0.000000 0.000000 8.921142 30.622716 -2.896070 -74.652540 -4.078980 -29.633944 83.221525 -43.831790 2.398617 3.993920 8.952338 5.738501 4.108056 -0.111820 2.728331 0.000000 0.000000 0.000000 10.672220 33.725394 -3.746948 16.740324 -30.981922 -5.085680 62.182145 17.547734 -8.055560 -38.056209 -3.517145 2.986228 -41.454638 -6.591311 5.209150 0.000000 0.000000 0.000000 11.004549 39.580540 -6.035802 6.796220 11.508231 0.236125 3.574762 15.394498 -0.407449 0.636961 1.585010 0.583742 0.000000 0.000000 0.000000 2.993926 14.484265 -0.852170 15.910729 -30.718957 2.106692 -22.431837 -38.196392 0.489562 0.000000 0.000000 0.000000 3.055325 15.412899 -1.491331 1.826591 -4.588014 -5.592072 -5.591044 -8.876346 -1.140784 -20.726954 17.494288 -24.868411 50.515287 -2.083323 20.159805 0.000000 0.000000 0.000000 3.997915 15.610291 -1.321941 -0.203505 5.415519 -17.620814 -4.929403 2.945052 1.775144 -30.398764 -14.177758 6.733805 -30.775401 31.219323 13.810478 0.000000 0.000000 0.000000 
-2.735956 26.103239 6.746945 0.000000 0.000000 0.000000 8.986040 26.788135 -2.763205 -73.253198 -3.961937 -26.875153 82.140798 -41.917042 2.010506 2.447348 8.204479 5.997470 3.045359 -0.041873 2.927035 0.000000 0.000000 0.000000 10.688338 30.124747 -3.481637 16.287614 -28.624088 -7.123940 60.407948 18.368988 -7.674624 -36.776023 -3.556993 4.526795 -42.117518 -6.466127 5.324481 0.000000 0.000000 0.000000 10.433274 36.135772 -5.748442 7.257965 10.950900 0.415410 3.842968 14.914201 -0.531247 0.436924 1.851176 0.523101 0.000000 0.000000 0.000000 3.183739 14.057457 -0.960839 13.834485 -29.827119 1.227404 -22.271258 -38.132898 1.347760 0.000000 0.000000 0.000000 3.187223 15.024524 -1.639111 1.489584 -3.765215 -4.838719 -6.421788 -9.254704 -0.958008 -13.401438 21.579390 -25.700397 50.330178 -0.408053 21.050312 0.000000 0.000000 0.000000 4.119648 15.307656 -1.383179 -0.892161 3.676298 -18.683571 -3.587004 2.846254 1.314772 -38.636201 -7.916395 9.989848 -27.720120 29.850065 13.703210 0.000000 0.000000 0.000000 
